# xmcd
#
# Track frame offsets:
# 180
# 20257
# 36420
# 51817
# 67342
# 86437
# 100762
# 127377
# 142257
# 155310
# 172672
# 190785
#
# Disc length: 2709 seconds
#
#
# Revision: 0
# Processed by: cddbd v1.4PL0 Copyright (c) Steve Scherf et al.
# Submitted via: FreeRIP 2.10 
#
DISCID=a50a930c
DTITLE=Blueshawks - All Over You
DYEAR=1996
DGENRE=Blues
TTITLE0=All Over You
TTITLE1=Keep Your Dream Alive
TTITLE2=Wandering Blues
TTITLE3=Do You Know What I'm Feeling?
TTITLE4=I Confess
TTITLE5=Midnight Shuffle
TTITLE6=I Won't Forget You
TTITLE7=Promises
TTITLE8=Another Day
TTITLE9=Listen To Me
TTITLE10=Last Thing On Your Mind
TTITLE11=Crossroads
EXTD=
EXTT0=
EXTT1=
EXTT2=
EXTT3=
EXTT4=
EXTT5=
EXTT6=
EXTT7=
EXTT8=
EXTT9=
EXTT10=
EXTT11=
PLAYORDER=
